<?xml version="1.0" encoding="UTF-8"?><svg id="Layer_1" xmlns="http://www.w3.org/2000/svg" viewBox="0 0 921.21 911.84"><defs><style>.cls-1{fill:#cdb959;}</style></defs><path class="cls-1" d="m414.73,585.74c-2.85-14.61-10.05-22.84-19.3-23.53-8.02-.6-16.46,2.6-24.43,17.61l-121.13,245.01c-1.53,3.37-3.38,3.54-4.42.24l-49.5-239.34c-2.85-14.61-10.05-22.84-19.3-23.53-8.02-.6-16.46,2.6-24.43,17.61L10.56,887.78c-9.57,20.73,10.34,24.48,26.71,24.02h393.08q50.87,0,38.68-63.47l-54.31-262.59Z"/><path class="cls-1" d="m691.82,387.5c-12.6-23.71-25.92-28.76-38.58-27.81-14.62,1.09-25.99,14.08-30.49,37.16l-85.77,414.69q-19.25,100.24,61.09,100.24h275.25c25.86.73,57.29-5.2,42.19-37.93l-223.7-486.35Z"/><path class="cls-1" d="m782.2,306.78c.49-.05.97-.07,1.46-.12,8.25-.87,16.27-2.41,24.03-4.5.11-.03.22-.05.34-.07,1.2-.28,2.36-.62,3.48-1.04,69.6-20.74,116.77-88.67,108.83-163.49C911.39,53.11,835.68-8.08,751.23.87c-2.41.26-4.79.58-7.16.94-.04,0-.09,0-.13,0-.07.01-.14.02-.21.04-.4.06-.8.14-1.19.2-70.77,11.86-82.26,38.5-199.22,97.26-132.55,66.59-246.73-42.88-359.62-19.18-.01,0-.02,0-.04,0C69.94,97.78-11.04,201.85,1.23,317.52c12.64,119.22,119.53,205.62,238.76,192.98,27.34-2.9,52.94-10.77,76.03-22.59.05-.03.11-.04.16-.07.14-.07.28-.15.42-.22,4.36-2.25,8.63-4.65,12.81-7.17,101.7-60.96,142.28-184.3,210.96-188.49,95.18-5.8,155.86,26.45,241.83,14.82Z"/></svg>