<?xml version="1.0" encoding="UTF-8"?><svg id="Layer_1" xmlns="http://www.w3.org/2000/svg" viewBox="0 0 770 762.17"><path d="m346.65,489.6c-2.38-12.22-8.4-19.09-16.14-19.67-6.7-.5-13.75,2.17-20.42,14.72l-101.25,204.8c-1.28,2.81-2.83,2.96-3.69.2l-41.37-200.05c-2.38-12.22-8.4-19.09-16.14-19.67-6.7-.5-13.75,2.17-20.42,14.72L8.83,742.06c-8,17.32,8.64,20.46,22.33,20.08h328.56q42.52,0,32.33-53.05l-45.39-219.49Z"/><path d="m578.26,323.9c-10.53-19.82-21.66-24.04-32.25-23.25-12.22.91-21.72,11.77-25.48,31.06l-71.69,346.62q-16.09,83.78,51.06,83.78h230.07c21.61.61,47.89-4.35,35.26-31.71l-186.98-406.52Z"/><path d="m653.81,256.42c.41-.04.81-.05,1.22-.1,6.9-.73,13.6-2.01,20.09-3.76.09-.02.19-.04.28-.06,1.01-.23,1.98-.52,2.91-.87,58.17-17.33,97.6-74.11,90.97-136.66-7.48-70.58-70.77-121.73-141.35-114.25-2.01.21-4,.48-5.98.79-.04,0-.07,0-.11,0-.06,0-.12.02-.18.03-.33.05-.66.11-1,.17-59.15,9.92-68.76,32.18-166.52,81.3-110.8,55.66-206.23-35.84-300.59-16.03-.01,0-.02,0-.03,0C58.46,81.73-9.22,168.72,1.03,265.4c10.56,99.65,99.91,171.87,199.57,161.31,22.85-2.42,44.25-9,63.55-18.88.04-.02.09-.04.13-.06.12-.06.23-.13.35-.19,3.65-1.88,7.21-3.88,10.7-6,85.01-50.96,118.93-154.05,176.33-157.55,79.56-4.85,130.27,22.11,202.14,12.38Z"/></svg>